<svg id="visual" viewBox="0 0 1920 350" width="1920" height="350" xmlns="http://www.w3.org/2000/svg" xmlns:xlink="http://www.w3.org/1999/xlink" version="1.1"><rect x="0" y="0" width="1920" height="350" fill="#ffffff"></rect><path d="M0 254L53.3 260.5C106.7 267 213.3 280 320 268.2C426.7 256.3 533.3 219.7 640 219.8C746.7 220 853.3 257 960 266.2C1066.7 275.3 1173.3 256.7 1280 250.8C1386.7 245 1493.3 252 1600 257C1706.7 262 1813.3 265 1866.7 266.5L1920 268L1920 351L1866.7 351C1813.3 351 1706.7 351 1600 351C1493.3 351 1386.7 351 1280 351C1173.3 351 1066.7 351 960 351C853.3 351 746.7 351 640 351C533.3 351 426.7 351 320 351C213.3 351 106.7 351 53.3 351L0 351Z" fill="#1e3a8a" stroke-linecap="round" stroke-linejoin="miter"></path></svg>